<svg width="518" height="475" viewBox="0 0 518 475" fill="none" xmlns="http://www.w3.org/2000/svg">
<path d="M229.08 162.464C292.162 141.39 352.598 130.794 399.296 130.674C422.651 130.614 442.511 133.175 457.53 138.316C472.561 143.462 482.58 151.13 486.577 161.186C490.574 171.242 488.285 183.021 480.389 195.826C472.499 208.62 459.092 222.294 441.17 236.023C405.335 263.474 351.631 291.009 288.55 312.082C225.468 333.155 165.031 343.751 118.333 343.871C94.9781 343.931 75.1182 341.37 60.099 336.228C45.0678 331.082 35.0498 323.415 31.0527 313.359C27.0557 303.303 29.3441 291.524 37.2404 278.719C45.1304 265.924 58.5374 252.25 76.4589 238.521C112.294 211.07 165.998 183.537 229.08 162.464Z" stroke="#3C3B3B" stroke-opacity="0.93" stroke-width="2"/>
<path d="M177.016 264.218C154.319 206.309 143.037 150.878 143.115 108.089C143.155 86.6908 146.035 68.5078 151.708 54.7696C157.38 41.032 165.799 31.8355 176.866 28.1899C187.934 24.5443 200.812 26.7251 214.724 34.0112C228.638 41.2977 243.482 53.6418 258.368 70.1232C288.135 103.081 317.917 152.418 340.614 210.327C363.311 268.236 374.592 323.668 374.514 366.457C374.475 387.855 371.595 406.038 365.922 419.776C360.25 433.513 351.831 442.71 340.764 446.355C329.697 450.001 316.818 447.82 302.906 440.534C288.993 433.248 274.147 420.904 259.261 404.422C229.495 371.465 199.713 322.127 177.016 264.218Z" stroke="#3C3B3B" stroke-opacity="0.93" stroke-width="2"/>
<path d="M188.015 191.077C226.938 140.94 270.159 100.81 308.538 76.4472C327.731 64.2638 345.665 56.0548 361.21 52.4851C376.758 48.9149 389.787 50.01 399.349 56.2493C408.912 62.4887 414.308 73.4155 415.721 88.052C417.134 102.686 414.548 120.91 408.278 141.525C395.741 182.749 368.538 233.33 329.615 283.467C290.691 333.605 247.471 373.736 209.092 398.099C189.899 410.282 171.964 418.491 156.419 422.061C140.872 425.631 127.843 424.536 118.28 418.296C108.718 412.057 103.322 401.13 101.908 386.494C100.496 371.859 103.082 353.636 109.351 333.021C121.889 291.797 149.091 241.215 188.015 191.077Z" stroke="#3C3B3B" stroke-opacity="0.93" stroke-width="2"/>
<path d="M305.293 169.995C362.01 202.926 408.061 240.333 436.674 274.161C450.984 291.079 460.896 307.06 465.624 321.102C470.355 335.152 469.853 347.117 463.596 356.175C457.338 365.232 445.753 370.762 429.876 372.847C414.008 374.93 394.013 373.544 371.213 368.915C325.624 359.659 269.053 337.482 212.335 304.55C155.618 271.618 109.568 234.211 80.9548 200.383C66.6453 183.465 56.7324 167.485 52.0045 153.443C47.274 139.393 47.7762 127.428 54.0336 118.371C60.2911 109.313 71.8756 103.783 87.7526 101.698C103.621 99.6148 123.616 101 146.416 105.629C192.005 114.884 248.576 137.063 305.293 169.995Z" stroke="#3C3B3B" stroke-opacity="0.93" stroke-width="2"/>
</svg>
