<svg width="322" height="289" viewBox="0 0 322 289" fill="none" xmlns="http://www.w3.org/2000/svg">
<path d="M82.4355 231.402C88.9381 184.425 58.3836 138.275 9.83155 121.476C60.6342 129.129 109.117 102.432 125.16 57.8035C118.658 104.78 149.213 150.93 197.765 167.729C146.962 160.075 98.4785 186.772 82.4355 231.402Z" stroke="#424242"/>
<path d="M-53.9029 142.82C-52.354 124.142 -64.2412 106.168 -83.0044 98.628C-62.8853 100.658 -44.0138 90.2528 -36.7165 72.989C-38.2651 91.6686 -26.3784 109.644 -7.61344 117.183C-27.7339 115.151 -46.6053 125.555 -53.9029 142.82Z" stroke="#424242"/>
<path d="M244.341 216.222C245.89 197.544 234.003 179.57 215.24 172.03C235.359 174.06 254.23 163.655 261.528 146.391C259.979 165.071 271.866 183.046 290.631 190.585C270.51 188.553 251.639 198.957 244.341 216.222Z" stroke="#424242"/>
</svg>
